<svg xmlns="http://www.w3.org/2000/svg" viewBox="0 0 1009.55 365.44"><defs><style>.cls-1{fill:#d72c42;}.cls-2{fill:#1e000b;}</style></defs><title>Asset 1</title><g id="Layer_2" data-name="Layer 2"><g id="Layer_1-2" data-name="Layer 1"><path class="cls-1" d="M178.35,313.52a11.35,11.35,0,0,1-5.35-1.23,9,9,0,0,1-4.8-6.87c-.41-2.61.08-5.69,1.51-9.41a46.69,46.69,0,0,1,6.93-11.48l.3-.38c-2.92,2.58-5.89,5.47-8.84,8.58a86.13,86.13,0,0,0-7.57,9,5.37,5.37,0,0,1-.93,1.23l-3.22,4.59-.07.08a16.37,16.37,0,0,1-4.87,4.11,12,12,0,0,1-5.81,1.71h-3.84a5.35,5.35,0,0,1-5.1-2.83,20.42,20.42,0,0,1-6.46,2.51,17,17,0,0,1-3.26.34,10.63,10.63,0,0,1-4.08-.76,8.82,8.82,0,0,1-4.73-4.47,10.83,10.83,0,0,1-.86-2.83c-1.36,1.08-2.76,2.09-4.17,3a39.1,39.1,0,0,1-6.46,3.48,17.91,17.91,0,0,1-7,1.54,10.3,10.3,0,0,1-8.44-3.85c-1.89-2.4-2.67-5.53-2.32-9.31a29.58,29.58,0,0,1,4-11.43,61.14,61.14,0,0,1,10.39-13.17,72.69,72.69,0,0,1,12.28-9.9,42.3,42.3,0,0,1,11.28-5.11,25.54,25.54,0,0,1,6.51-.91,18.39,18.39,0,0,1,3.53.33,17,17,0,0,1,5.29,1.91,15.1,15.1,0,0,1,2.06-1.1,12.39,12.39,0,0,1,4.83-1.08h3.84c4.22,0,5.33,3,5.57,3.87.51,2-.08,4-1.76,6.17-.37.46-1.21,1.51-2.52,3.18s-2.73,3.58-4.32,5.86-3.33,4.77-5.1,7.29c-1.41,2-2.66,3.9-3.72,5.66,1-.83,2.09-1.76,3.2-2.77,2.44-2.23,4.94-4.67,7.46-7.27s4.67-5,6.45-7.1l.38-.44,6.06-8.59a14.43,14.43,0,0,1,4.93-4.26,12.41,12.41,0,0,1,5.75-1.6h3.84c4.11,0,5.27,2.81,5.55,3.8a28.69,28.69,0,0,1,9.84-3.5,20.72,20.72,0,0,1,3.06-.24,13.2,13.2,0,0,1,4.3.67,6.93,6.93,0,0,1,4.71,6.5c.12,2.42-.74,5.3-2.71,9.08a81.94,81.94,0,0,1-8.78,12.69L195,289c-.75.88-1.42,1.71-2,2.47.84-.71,1.72-1.47,2.62-2.29,1.53-1.4,3.14-2.94,4.8-4.58a70.18,70.18,0,0,1,7.75-8.84,68.89,68.89,0,0,1,12.13-9.88,42.8,42.8,0,0,1,11.2-5.11,25.75,25.75,0,0,1,6.67-.94,18.79,18.79,0,0,1,3.31.28,17.72,17.72,0,0,1,4.62,1.45c2.55-3.67,5.17-7.41,7.81-11.15L263,237.57q4.11-5.77,6.9-9.62c2.48-3.41,2.93-4.11,3-4.25l.12-.19.15-.19a16.53,16.53,0,0,1,4.87-4.12,12,12,0,0,1,5.81-1.7h3.71a5.36,5.36,0,0,1,5.58,4c.48,2-.09,4-1.7,6.1-.19.28-.84,1.18-3.51,4.83q-3.24,4.42-7.92,11c-3.07,4.28-6.42,9-10.25,14.41q-5.57,7.88-10.59,15c-3.27,4.65-6.25,8.92-8.85,12.69-2.41,3.48-3.7,5.48-4.4,6.62,1.1-.88,2.25-1.88,3.46-3,2.43-2.22,4.94-4.67,7.46-7.27s4.57-4.92,6.27-7l.1-.12a13.85,13.85,0,0,1,4.25-3.58,6,6,0,0,1,2.59-.63,4.54,4.54,0,0,1,3.23,1.32,5.57,5.57,0,0,1,1.47,4.74,9.77,9.77,0,0,1-1.76,4.51c-.71,1-1.75,2.38-3.22,4.22s-3.24,3.86-5.28,6-4.27,4.42-6.68,6.74-4.92,4.56-7.37,6.55A72.75,72.75,0,0,1,243,310a22.42,22.42,0,0,1-7.48,3.18,18.34,18.34,0,0,1-3.4.35,10.78,10.78,0,0,1-4.13-.75,8.48,8.48,0,0,1-4.85-4.78,11.91,11.91,0,0,1-.71-2.7c-1.34,1.06-2.72,2.06-4.1,3a41.37,41.37,0,0,1-6.57,3.61,18.14,18.14,0,0,1-7.22,1.62,10.52,10.52,0,0,1-8.47-3.81,10.41,10.41,0,0,1-1.78-3.17c-1.69,1.27-3.38,2.43-5.05,3.47a22.38,22.38,0,0,1-7.49,3.18A17.23,17.23,0,0,1,178.35,313.52Zm35.62-17ZM133,272.59a21.58,21.58,0,0,0-6.05,2.53,42.77,42.77,0,0,0-6.67,4.95,53.39,53.39,0,0,0-5.46,5.65l-.09.11a26.8,26.8,0,0,0-4.29,6.25,14.12,14.12,0,0,0-1.16,3.26,18.13,18.13,0,0,0,2.52-1.4l.12-.08a33.73,33.73,0,0,0,5.74-4.5c2.24-2.11,4.47-4.37,6.65-6.71s4.29-4.75,6.23-7.08C131.45,274.5,132.27,273.51,133,272.59Zm104.9,0a21.73,21.73,0,0,0-6.21,2.57,43.17,43.17,0,0,0-6.66,4.95,54.58,54.58,0,0,0-5.47,5.65l-.09.11a26.43,26.43,0,0,0-4.28,6.25,14.12,14.12,0,0,0-1.16,3.26,18.73,18.73,0,0,0,2.52-1.4,45.78,45.78,0,0,0,6.66-5.32c2.55-2.37,5-4.92,7.38-7.57s4.61-5.27,6.62-7.67Z"/><path class="cls-2" d="M287.59,221c1.23,0,2,.44,2.18,1.32s-.15,2-1.12,3.18q-.27.41-3.51,4.83t-7.95,11q-4.69,6.55-10.26,14.43t-10.59,15q-5,7.15-8.87,12.71c-2.57,3.71-4.24,6.27-5,7.68q-2.51,4-2.78,5.76c-.18,1.19.09,1.88.8,2.06a1.65,1.65,0,0,0,.46.06c.9,0,2.23-.6,4-1.79a62.48,62.48,0,0,0,6.89-5.56q3.76-3.43,7.61-7.41t6.49-7.29A11.12,11.12,0,0,1,269,274.3a2.64,2.64,0,0,1,1.1-.3,1,1,0,0,1,.76.3,2.32,2.32,0,0,1,.46,1.92,6.67,6.67,0,0,1-1.19,2.91c-.62.89-1.64,2.21-3.05,4s-3.11,3.7-5.09,5.82-4.18,4.33-6.56,6.62-4.77,4.42-7.15,6.36a70.46,70.46,0,0,1-7.08,5.1,19.13,19.13,0,0,1-6.29,2.71,14.89,14.89,0,0,1-2.75.29,7.37,7.37,0,0,1-2.82-.49,5,5,0,0,1-2.91-2.84,10,10,0,0,1-.53-4.71,21,21,0,0,1,1.59-5.89q-2.39,2.39-5.23,4.84a59.37,59.37,0,0,1-5.83,4.43,37.66,37.66,0,0,1-6,3.31,14.53,14.53,0,0,1-5.83,1.33,7,7,0,0,1-5.76-2.52q-2.06-2.52-1.66-6.82c0-.36.09-.74.15-1.12-.93.82-1.86,1.62-2.79,2.38a70.55,70.55,0,0,1-7.09,5.1,19,19,0,0,1-6.29,2.71,14,14,0,0,1-2.77.3,7.91,7.91,0,0,1-3.72-.83,5.54,5.54,0,0,1-3-4.3c-.31-2,.14-4.52,1.33-7.62a43.49,43.49,0,0,1,6.42-10.59q5.57-7,8.15-10.26c1.72-2.16,2.09-3.47,1.12-3.91a1.25,1.25,0,0,0-.61-.14q-1.37,0-4.36,2a84.4,84.4,0,0,0-8.54,6.68q-4.75,4.17-9.6,9.27a88.35,88.35,0,0,0-8,9.6,1.35,1.35,0,0,1-.53.66l-3.44,4.9a12.94,12.94,0,0,1-3.84,3.25,8.55,8.55,0,0,1-4.11,1.26h-3.84c-1.23,0-1.94-.44-2.12-1.33a4.18,4.18,0,0,1,1.2-3.18l3-4.23-.8.66A82.46,82.46,0,0,1,136,307a18.33,18.33,0,0,1-6.36,2.71A13.72,13.72,0,0,1,127,310a6.88,6.88,0,0,1-2.72-.49,5.37,5.37,0,0,1-2.92-2.71,9.08,9.08,0,0,1-.66-4.5,19.85,19.85,0,0,1,1.39-5.7q-2.39,2.25-5.16,4.64a56.38,56.38,0,0,1-5.7,4.3,36.41,36.41,0,0,1-5.89,3.18A14.45,14.45,0,0,1,99.68,310,6.81,6.81,0,0,1,94,307.47q-2-2.52-1.59-6.82A26.77,26.77,0,0,1,96,290.59a56.84,56.84,0,0,1,9.8-12.38,68.29,68.29,0,0,1,11.65-9.41,39,39,0,0,1,10.33-4.7,22.07,22.07,0,0,1,5.61-.79,14.63,14.63,0,0,1,2.86.26,12.69,12.69,0,0,1,6.09,2.85,10.56,10.56,0,0,1,3.31-2.25,8.85,8.85,0,0,1,3.45-.8h3.84c1.23,0,2,.42,2.18,1.26s-.15,1.88-1.12,3.11l-2.52,3.18q-2,2.52-4.44,6l-5.09,7.28c-1.77,2.52-3.27,4.83-4.51,6.95a20,20,0,0,0-2.84,5.76c-.22,1.19,0,1.88.72,2.06a1.73,1.73,0,0,0,.47.06c.9,0,2.22-.6,4-1.79a63.43,63.43,0,0,0,6.89-5.56q3.76-3.43,7.61-7.41t6.62-7.29l.46-.53,6.16-8.74a10.76,10.76,0,0,1,3.71-3.17,8.86,8.86,0,0,1,4.11-1.2h3.84c1.23,0,2,.42,2.18,1.26s-.15,1.88-1.12,3.11l-4.77,6.76a77.15,77.15,0,0,1,10-7.22,25.8,25.8,0,0,1,9.6-3.64,17,17,0,0,1,2.56-.21,9.59,9.59,0,0,1,3.13.47,3.43,3.43,0,0,1,2.38,3.38q.14,2.58-2.31,7.28a80.19,80.19,0,0,1-8.41,12.12,44.21,44.21,0,0,0-4.44,6,22.77,22.77,0,0,0-1.85,3.77,2.82,2.82,0,0,0-.2,1.92,1.19,1.19,0,0,0,.79.67,1.73,1.73,0,0,0,.47.06c.9,0,2.22-.6,4-1.79a63.43,63.43,0,0,0,6.89-5.56c1.69-1.54,3.4-3.18,5.11-4.88a78.5,78.5,0,0,1,19-18,39.31,39.31,0,0,1,10.27-4.7,22.27,22.27,0,0,1,5.76-.82,14.94,14.94,0,0,1,2.71.23,12.23,12.23,0,0,1,6.16,2.78q4.77-6.89,9.73-13.91t9.07-12.78c2.74-3.84,5-7,6.89-9.6s2.91-4.06,3.18-4.5a12.93,12.93,0,0,1,3.84-3.24,8.52,8.52,0,0,1,4.1-1.26h3.71M213,299.18c1.28,0,3.1-.77,5.48-2.3a48.7,48.7,0,0,0,7.16-5.7q4-3.71,7.61-7.81t6.69-7.75c2-2.42,3.53-4.3,4.5-5.62a9.52,9.52,0,0,0-4.63-1.18,11,11,0,0,0-2.32.25,24.68,24.68,0,0,0-7.55,3,46,46,0,0,0-7.22,5.37,55.56,55.56,0,0,0-5.82,6,30.54,30.54,0,0,0-4.84,7.09,13.58,13.58,0,0,0-1.59,5.82c.05,1.55.71,2.45,2,2.72a3.1,3.1,0,0,0,.54.05m-104.75,0q1.92,0,5.49-2.3a37.15,37.15,0,0,0,6.36-5q3.44-3.24,6.82-6.88t6.35-7.22c2-2.39,3.6-4.37,4.84-6l1.45-1.85a9,9,0,0,0-4.51-1.18,11.09,11.09,0,0,0-2.31.25,24.78,24.78,0,0,0-7.55,3,45.88,45.88,0,0,0-7.21,5.37,55.72,55.72,0,0,0-5.83,6,30.17,30.17,0,0,0-4.83,7.09,13.3,13.3,0,0,0-1.59,5.82c0,1.55.7,2.45,2,2.72a2.89,2.89,0,0,0,.53.05M287.59,214h-3.71a15.38,15.38,0,0,0-7.52,2.15,19.91,19.91,0,0,0-5.89,5l-.3.37-.22.37c-.12.18-.65,1-2.86,4-2,2.78-4.34,6-6.92,9.64q-4.11,5.78-9.08,12.8c-2.11,3-4.21,6-6.27,8.91a24.58,24.58,0,0,0-2.69-.64,23.07,23.07,0,0,0-3.93-.33,29.6,29.6,0,0,0-7.57,1.06,46.14,46.14,0,0,0-12.14,5.51,64.7,64.7,0,0,0-8.48,6.37,14.91,14.91,0,0,0,.09-2.29,10.44,10.44,0,0,0-7-9.63,16.41,16.41,0,0,0-5.46-.87,24,24,0,0,0-3.59.28,30.69,30.69,0,0,0-8,2.39,9.44,9.44,0,0,0-6.85-2.73H175.3a15.85,15.85,0,0,0-7.39,2,17.69,17.69,0,0,0-5.91,5c0-.18-.08-.36-.13-.53-1-3.95-4.55-6.49-9-6.49h-3.84a15.76,15.76,0,0,0-6.2,1.36l-.79.36a21.77,21.77,0,0,0-4.51-1.39,22.27,22.27,0,0,0-4.21-.39,29.29,29.29,0,0,0-7.4,1,45.89,45.89,0,0,0-12.22,5.52,76.17,76.17,0,0,0-12.87,10.35l0,0,0,0a63.53,63.53,0,0,0-11,13.94A33.09,33.09,0,0,0,85.43,300c-.43,4.7.6,8.68,3.07,11.8A13.63,13.63,0,0,0,99.68,317a21.49,21.49,0,0,0,8.36-1.81,44.45,44.45,0,0,0,7-3.78l.59-.4a12.42,12.42,0,0,0,5.9,5,14,14,0,0,0,5.42,1,20.72,20.72,0,0,0,3.95-.41,22,22,0,0,0,4.9-1.56,9.52,9.52,0,0,0,6,1.95h3.84a15.5,15.5,0,0,0,7.53-2.15,20,20,0,0,0,5.88-5l.14-.17.13-.18,3-4.27a8.67,8.67,0,0,0,1.18-1.58q.54-.75,1.14-1.53a16.24,16.24,0,0,0,.12,3.84,12.51,12.51,0,0,0,6.64,9.42,14.81,14.81,0,0,0,7,1.63,20.74,20.74,0,0,0,4.11-.43,25.57,25.57,0,0,0,8.65-3.64c.68-.42,1.36-.87,2-1.33.07.09.14.19.22.28A13.86,13.86,0,0,0,204.56,317a21.54,21.54,0,0,0,8.62-1.91,46.21,46.21,0,0,0,7.12-3.9l.4-.28a12,12,0,0,0,6,5.11,14.49,14.49,0,0,0,5.45,1,21.91,21.91,0,0,0,4.06-.41,25.57,25.57,0,0,0,8.67-3.65,74.59,74.59,0,0,0,7.81-5.62c2.52-2.05,5.08-4.32,7.59-6.74s4.74-4.67,6.8-6.87,3.94-4.34,5.46-6.24,2.61-3.32,3.31-4.33l.05-.07.05-.07a13.6,13.6,0,0,0,2.33-6.09,9.1,9.1,0,0,0-2.49-7.57,8,8,0,0,0-5.7-2.35,9.13,9.13,0,0,0-2.84.47q2.64-3.75,5.41-7.67c3.82-5.41,7.17-10.12,10.23-14.39s5.75-8,7.91-10.94c2.48-3.39,3.23-4.44,3.51-4.83,2.8-3.68,2.78-6.92,2.27-9a8.86,8.86,0,0,0-9-6.64Z"/><path class="cls-1" d="M288.28,313.54a9.88,9.88,0,0,1-4.93-1.17,9,9,0,0,1-4.4-5.95,16.28,16.28,0,0,1,.2-7.5,30.75,30.75,0,0,1,3.13-7.85c.68-1.18,2-3.21,4.06-6.28s4.4-6.43,7.14-10.27,5.64-7.94,8.73-12.31l4.73-6.68-8.56.35c-4.4.18-7.38.27-8.88.27H289c-5.29,0-6.53-3.15-6.82-4.5a8.64,8.64,0,0,1,1.57-6.72,19.07,19.07,0,0,1,5.26-5.06,13.9,13.9,0,0,1,7.85-2.52q3.17,0,9.89-.06,6.06-.06,13.48-.17l4.67-6.3a15.82,15.82,0,0,1,4.81-4.08,12,12,0,0,1,5.81-1.7h3.84c4.22,0,5.33,2.95,5.57,3.86.51,2-.08,4-1.75,6.17l-.14.17-.08.08c-.08.1-.32.39-.94,1.22a5.79,5.79,0,0,1,3,1.4l10.11-14.45a15.19,15.19,0,0,1,4.86-4.3,12,12,0,0,1,5.82-1.7h3.84a5.36,5.36,0,0,1,5.58,4c.49,2-.09,4-1.71,6.11l-24,34.28a26.41,26.41,0,0,1,6.11-1.69,20.72,20.72,0,0,1,3.06-.24,13.15,13.15,0,0,1,4.3.67,6.93,6.93,0,0,1,4.71,6.5c.13,2.42-.73,5.3-2.71,9.08a81.94,81.94,0,0,1-8.78,12.69l-.06.08c-.66.77-1.25,1.49-1.78,2.16.72-.61,1.48-1.28,2.25-2,2.43-2.22,4.94-4.67,7.46-7.27,1.34-1.39,2.64-2.78,3.87-4.14a55.25,55.25,0,0,1,4.23-4.82,49.23,49.23,0,0,1,12.9-9.34,35.34,35.34,0,0,1,16.07-3.82,16.66,16.66,0,0,1,6.71,1.29,11.18,11.18,0,0,1,4.86,3.88,9.28,9.28,0,0,1,1.45,6.4,13.5,13.5,0,0,1-1.93,5.34c.67-.66,1.32-1.32,1.95-2a10.29,10.29,0,0,1,4.74-3.4,7.67,7.67,0,0,1,2.09-.31,5.08,5.08,0,0,1,2.92.87,5,5,0,0,1,1.92,5.15,9.19,9.19,0,0,1-2.13,4.38l-.1.11a144.64,144.64,0,0,1-10.45,10.46,140.82,140.82,0,0,1-12.63,10.25,96.25,96.25,0,0,1-12.93,7.9,28.26,28.26,0,0,1-12.42,3.42c-5.65,0-9.85-1.58-12.47-4.69a14.07,14.07,0,0,1-3-5.9c-.69.59-1.38,1.17-2.06,1.72a72.75,72.75,0,0,1-7.45,5.36,22.42,22.42,0,0,1-7.48,3.18,17.06,17.06,0,0,1-3.35.36,11.19,11.19,0,0,1-5.29-1.23,9.19,9.19,0,0,1-4.86-6.79c-.48-2.65,0-5.75,1.43-9.49a45.33,45.33,0,0,1,7.09-11.52l.33-.42c-2.2,2-4.49,4.16-6.82,6.52-2.93,3-5.57,5.89-7.85,8.67l-5.81,8.32-.07.09a16.49,16.49,0,0,1-4.87,4.11,12,12,0,0,1-5.81,1.71h-3.84a5.37,5.37,0,0,1-5.06-2.74,24.12,24.12,0,0,1-6.08,2.38A18.27,18.27,0,0,1,288.28,313.54Zm90-18.48a5.52,5.52,0,0,0,.17,1.63c.08.29.13.47.79.63l.15,0a2.72,2.72,0,0,0,.77.1,12,12,0,0,0,4.21-1,59.61,59.61,0,0,0,9.49-5l2.29-1.5a62.37,62.37,0,0,1-9.4,3.45A55.71,55.71,0,0,1,378.32,295.06ZM330.06,253l-7.92,11q-4.69,6.48-8.87,12.3c-2.76,3.86-5.21,7.36-7.3,10.4-1.65,2.4-2.89,4.24-3.72,5.5,1-.77,2-1.62,3-2.54,2.29-2,4.67-4.36,7.07-6.88s4.47-4.83,6.25-6.94L335,252.38l-.11,0Zm63.65,20a14.09,14.09,0,0,0-3.54,1.95,24.17,24.17,0,0,0-3.76,3.47c-.84.95-1.64,2-2.4,3q1.1-.35,2.1-.75a26.75,26.75,0,0,0,6.31-3.49,11.67,11.67,0,0,0,3.13-3.42,7.69,7.69,0,0,0,.55-1.24h0A8.17,8.17,0,0,0,393.71,273.05Z"/><path class="cls-2" d="M369.69,221c1.23,0,2,.44,2.18,1.32s-.15,2-1.12,3.18l-34.3,49a75,75,0,0,1,10.06-7.22,26.42,26.42,0,0,1,9.67-3.64,17.06,17.06,0,0,1,2.56-.21,9.69,9.69,0,0,1,3.14.47,3.44,3.44,0,0,1,2.38,3.38c.09,1.72-.69,4.15-2.32,7.28a78.73,78.73,0,0,1-8.41,12.12,49.51,49.51,0,0,0-4.5,6,20.53,20.53,0,0,0-1.92,3.77,2.82,2.82,0,0,0-.2,1.92,1.19,1.19,0,0,0,.8.67,1.65,1.65,0,0,0,.46.06c.9,0,2.23-.6,4-1.79a62.48,62.48,0,0,0,6.89-5.56q3.77-3.43,7.61-7.41c1.47-1.52,2.81-3,4-4.33a52.26,52.26,0,0,1,4-4.61,45.64,45.64,0,0,1,12-8.68,31.81,31.81,0,0,1,14.5-3.44,13.09,13.09,0,0,1,5.3,1,7.8,7.8,0,0,1,3.38,2.65,5.86,5.86,0,0,1,.86,4,11.38,11.38,0,0,1-2.25,5.17,25.39,25.39,0,0,1-5.37,5.56,42.85,42.85,0,0,1-7.74,4.77,57.93,57.93,0,0,1-9.54,3.57,52.88,52.88,0,0,1-10.59,1.85,11.6,11.6,0,0,0-.13,5.77,4.2,4.2,0,0,0,3.31,3.11,6.11,6.11,0,0,0,1.77.24,15.48,15.48,0,0,0,5.51-1.3,62.27,62.27,0,0,0,10.06-5.3,111.56,111.56,0,0,0,11-8A110,110,0,0,0,416.83,277a7.18,7.18,0,0,1,3.11-2.38,4.3,4.3,0,0,1,1.13-.18,1.52,1.52,0,0,1,.92.25,1.64,1.64,0,0,1,.47,1.72,6,6,0,0,1-1.39,2.71,146.83,146.83,0,0,1-22.51,20.2,92.46,92.46,0,0,1-12.45,7.61A24.82,24.82,0,0,1,375.25,310q-6.88,0-9.8-3.45a11.74,11.74,0,0,1-2.58-8.67,21.06,21.06,0,0,1,.39-2.89l-.59.57q-3.57,3.45-7.15,6.36a69.43,69.43,0,0,1-7.09,5.1,19,19,0,0,1-6.29,2.71,13.18,13.18,0,0,1-2.69.3,7.78,7.78,0,0,1-3.66-.83,5.69,5.69,0,0,1-3.05-4.3c-.35-2,.07-4.52,1.26-7.62a41.86,41.86,0,0,1,6.56-10.59q5.42-7,8.07-10.26c1.77-2.16,2.17-3.47,1.19-3.91a1.34,1.34,0,0,0-.56-.1,8.93,8.93,0,0,0-4,1.69,65.17,65.17,0,0,0-7.62,5.76q-4.23,3.64-8.8,8.28t-8.15,9l-5.82,8.34a12.94,12.94,0,0,1-3.84,3.25,8.58,8.58,0,0,1-4.11,1.26h-3.84c-1.24,0-1.94-.44-2.12-1.33s.22-1.94,1.19-3.18l2.39-3.44a60.53,60.53,0,0,1-7,5,22.31,22.31,0,0,1-6.36,2.71,15,15,0,0,1-2.88.32,6.46,6.46,0,0,1-3.21-.72,5.47,5.47,0,0,1-2.71-3.7,13,13,0,0,1,.19-5.9,27.17,27.17,0,0,1,2.79-7c.61-1.06,1.92-3.06,3.9-6s4.35-6.36,7.09-10.2,5.65-7.95,8.74-12.32,6-8.54,8.87-12.51q-9,.41-15.69.66t-8.81.27H289c-2,0-3.15-.58-3.4-1.73a5.29,5.29,0,0,1,1.06-4,15.34,15.34,0,0,1,4.3-4.11,10.41,10.41,0,0,1,5.9-1.92c2.11,0,5.43,0,9.93-.06s9.58-.11,15.23-.2l5.69-7.68a12.22,12.22,0,0,1,3.71-3.12,8.63,8.63,0,0,1,4.1-1.25h3.84c1.24,0,2,.42,2.19,1.25s-.16,1.88-1.13,3.12c-.18.17-.77,1-1.78,2.31l-3.78,5.1,5-.39.51,0c1.46,0,2.33.36,2.61,1.07a3.18,3.18,0,0,1-.6,2.85,11.61,11.61,0,0,1-3.25,3.18,11.08,11.08,0,0,1-4.83,1.92l-6.22.79-8.81,12.19q-4.69,6.48-8.87,12.31t-7.35,10.46q-3.18,4.65-4.37,6.49a19.09,19.09,0,0,0-2.65,5.76c-.18,1.19.05,1.88.66,2.06a1.88,1.88,0,0,0,.49.06,8,8,0,0,0,3.82-1.65,62.09,62.09,0,0,0,6.55-5.17c2.39-2.12,4.81-4.48,7.29-7.08s4.63-5,6.48-7.22L358,225.5a11.62,11.62,0,0,1,3.71-3.24,8.55,8.55,0,0,1,4.11-1.26h3.84m7.41,65.42A38.49,38.49,0,0,0,387.43,284a29.49,29.49,0,0,0,7.15-4,14.83,14.83,0,0,0,4-4.5,6.79,6.79,0,0,0,1.06-3.91,2.72,2.72,0,0,0-2-2.25,4.56,4.56,0,0,0-1.6-.25,11.85,11.85,0,0,0-3.49.65,17.44,17.44,0,0,0-4.51,2.45,28.31,28.31,0,0,0-4.3,4,41.08,41.08,0,0,0-3.77,5,39.24,39.24,0,0,0-2.92,5.3M369.69,214h-3.84a15.38,15.38,0,0,0-7.52,2.15,18.43,18.43,0,0,0-5.94,5.21l-.05.07,0,.06-4.16,5.95a8.9,8.9,0,0,0-8.78-5.89h-3.84a15.47,15.47,0,0,0-7.52,2.14,19.32,19.32,0,0,0-5.79,4.9l-.06.08-.06.08-3.64,4.9-11.73.15c-4.24,0-7.65.06-9.86.06a17.33,17.33,0,0,0-9.81,3.12,22.3,22.3,0,0,0-6.22,6,12,12,0,0,0-2.07,9.38c.75,3.51,3.83,7.27,10.24,7.27h.57c1.56,0,4.5-.1,9-.27l1.44-.06-.62.87q-4.64,6.56-8.73,12.3c-2.75,3.86-5.17,7.35-7.19,10.35-2.13,3.18-3.45,5.21-4.14,6.41l0,.06,0,.06a34.25,34.25,0,0,0-3.48,8.75,19.74,19.74,0,0,0-.19,9.11,12.42,12.42,0,0,0,6.09,8.2,13.35,13.35,0,0,0,6.64,1.61,21.82,21.82,0,0,0,4.25-.45l.09,0,.09,0a25.59,25.59,0,0,0,4.43-1.48,9.58,9.58,0,0,0,5.94,1.92h3.84a15.49,15.49,0,0,0,7.52-2.15,19.91,19.91,0,0,0,5.89-5l.14-.18.13-.19,5.06-7.24a15.89,15.89,0,0,0,.19,3.87,12.74,12.74,0,0,0,6.69,9.27,14.68,14.68,0,0,0,6.91,1.63,20.86,20.86,0,0,0,4.06-.43,25.85,25.85,0,0,0,8.62-3.64,74.29,74.29,0,0,0,6.23-4.35,17.31,17.31,0,0,0,1.75,2.47c3.32,3.92,8.41,5.92,15.14,5.92,4.32,0,8.9-1.24,14-3.79a98.32,98.32,0,0,0,13.4-8.19,144.8,144.8,0,0,0,12.95-10.51,147.81,147.81,0,0,0,10.71-10.71l.09-.11.09-.11a12.74,12.74,0,0,0,2.89-6.06A8.53,8.53,0,0,0,426,269a8.62,8.62,0,0,0-4.95-1.52,10.79,10.79,0,0,0-3.05.45l-.39.12a12,12,0,0,0-2-5.06,14.6,14.6,0,0,0-6.34-5.13,20.12,20.12,0,0,0-8.13-1.59,38.72,38.72,0,0,0-17.65,4.2A53.17,53.17,0,0,0,371.18,269a13.57,13.57,0,0,0,.07-2.1,10.44,10.44,0,0,0-7.05-9.63,16.37,16.37,0,0,0-5.46-.87l-1.12,0,18.77-26.81c2.81-3.68,2.79-6.93,2.28-9a8.86,8.86,0,0,0-9-6.64Z"/><polygon class="cls-1" points="820.42 324.06 827.75 199.37 919.71 204.77 917.4 243.98 869.07 241.14 868.83 245.18 916.32 247.97 914.17 284.47 866.69 281.68 866.41 286.39 914.91 289.24 912.55 329.47 820.42 324.06"/><path class="cls-2" d="M831,203.07l85,5-1.9,32.22-48.33-2.84-.65,11,47.49,2.79-1.74,29.51L863.4,278l-.69,11.7,48.5,2.85-2,33.24-85.14-5L831,203.07m-6.58-7.4-.41,7-6.91,117.7-.42,7,7,.41,85.14,5,7,.41.41-7,2-33.24.41-7-1-.06.27-4.71,1.74-29.51.23-4,.85.05.41-7,1.9-32.23.41-7-7-.41-85-5-7-.41Z"/><path class="cls-1" d="M764.87,313.9l-.46,0c-1.87-.1-3.8-.19-5.79-.47l-19.09-2.72L737,328.28l-45.47-6.46,18.48-130.18,64.56,9.17c16.16,2.29,28.89,9.51,37.87,21.44a55.48,55.48,0,0,1,10.94,42.47,54.74,54.74,0,0,1-15.73,31.88l23.15,42-40.13,22.1Zm.21-46a12,12,0,0,0,1.58.11,11.38,11.38,0,0,0,11.12-9.81,11.23,11.23,0,0,0-9.52-12.68l-19.09-2.71L746,265.23Z"/><path class="cls-2" d="M713,195.6l61.09,8.67c14.56,2.07,26.72,8.32,35.56,20.09A52.27,52.27,0,0,1,820,264.23a51.47,51.47,0,0,1-16.64,31.7l22.76,41.28-34,18.72L767,310.52c-2.51-.18-5.22-.2-7.89-.58l-22.55-3.2-2.5,17.58-38.53-5.47L713,195.6m53.63,76a14.84,14.84,0,0,0,14.58-12.82,14.65,14.65,0,0,0-12.49-16.63l-22.56-3.2L742,268.2l22.56,3.2a14.62,14.62,0,0,0,2.07.15m-59.58-83.87-1,6.93L688.59,317.86l-1,6.93,6.93,1,38.54,5.47,6.93,1,1-6.93,1.52-10.65,15.62,2.22c1.59.23,3.16.34,4.62.43l23.2,42,3.38,6.12,6.13-3.38,34-18.72L835.6,340l-3.39-6.13L812,297.17a58.3,58.3,0,0,0,14.89-32,59.6,59.6,0,0,0-11.62-45.06c-9.54-12.71-23.06-20.38-40.17-22.81L714,188.66l-6.93-1ZM750,262.25l2.19-15.44L767.76,249a7.63,7.63,0,0,1,6.55,8.72,7.85,7.85,0,0,1-7.65,6.8,8,8,0,0,1-1.09-.08L750,262.25Z"/><path class="cls-1" d="M568.05,329.42l43.37-124.89h48.81L703.6,329.44h-46L652.2,314H619.62l-5.44,15.64Zm71.17-52.51-3.4-9.79-3.4,9.79Z"/><path class="cls-2" d="M657.74,208l40.94,117.91H660.11l-5.43-15.46H617.13l-5.43,15.63L573,325.94,613.9,208h43.84M627.5,280.41h16.65l-8.33-24-8.32,24M662.72,201H608.93l-1.64,4.71-40.94,117.9-3.21,9.26,9.79,0,38.74.17,5,0,1.64-4.72,3.8-10.93h27.61l3.79,10.78,1.65,4.68h53.36l-3.23-9.3-40.94-117.9L662.72,201Z"/><polygon class="cls-1" points="435.7 209.19 484.36 199.67 493.32 245.5 523.63 239.58 514.66 193.74 563.13 184.26 590.61 324.79 542.14 334.27 533.11 288.05 502.81 293.97 511.84 340.19 463.18 349.71 435.7 209.19"/><path class="cls-2" d="M560.37,188.37,586.51,322l-41.6,8.13-9-46.22-37.17,7.27,9,46.22L466,345.6,439.81,212l41.79-8.18,9,45.84,37.17-7.27-9-45.83,41.6-8.14m5.52-8.21L559,181.5l-41.6,8.14L510.55,191l1.35,6.87,7.62,39-23.43,4.59-7.62-39-1.35-6.87-6.87,1.34-41.79,8.18-6.87,1.34,1.35,6.87L459.08,347l1.34,6.87,6.87-1.35,41.79-8.17L516,343l-1.34-6.87-7.7-39.35,23.43-4.59L538,331.5l1.34,6.87,6.87-1.34,41.6-8.14,6.87-1.34-1.34-6.87L567.24,187l-1.35-6.87Z"/><polygon class="cls-1" points="883.12 143.16 908.57 11.62 1005.45 30.36 997.51 71.37 946.31 61.46 945.38 66.26 995.68 76 988.31 114.13 938 104.39 936.94 109.92 988.32 119.86 980.17 161.94 883.12 143.16"/><path class="cls-2" d="M911.34,15.72l90,17.41-6.6,34.14-51.2-9.91L941.28,69l50.3,9.73L985.53,110l-50.3-9.74-2.4,12.4,51.38,9.94-6.81,35.21-90.18-17.45L911.34,15.72M905.8,7.51l-1.33,6.88L880.34,139.06,879,145.94l6.88,1.33,90.18,17.44,6.87,1.33,1.33-6.87L991.09,124l1.32-6.87-1.07-.21,1.07-5.52,6-31.26.93-4.81.9.18,1.33-6.87,6.61-34.14,1.33-6.87-6.88-1.33-90-17.42L905.8,7.51Z"/><path class="cls-1" d="M812.1,162.11c-3.31,0-5.38-.05-5.38-.05l-3.53-.07,1.28-45.75,3.33-.08c.19,0,19.76-.46,33.94-2,.93-.11,1.92-.21,2.91-.31,8.1-.83,10.09-1.65,10.18-4.2a2.66,2.66,0,0,0-.55-2.15c-.82-.85-2.82-1.34-5.49-1.34-.4,0-.81,0-1.25,0l-.59,0-.12,0c-.83,0-3.46.06-11.38.42-3.5.1-6.77.15-9.77.15-5.12,0-7.69-.14-7.79-.15-20.17-.62-33-18.51-33.76-35.44-.57-15.17,1.35-27.75,12.56-39.9C807.44,19.38,822.3,16,836.76,14c13.84-1.66,39.12-1.71,40.19-1.71h3.68l-2.18,44.57-3.17.15c-.23,0-22.47,1.11-31.67,2l-3.38.36c-9.87,1-9.91,1.43-10.08,3.12a2.85,2.85,0,0,0,2.34,3.19h.07a50.8,50.8,0,0,0,6.6.24c2.16,0,4.7,0,7.55-.12h.13l6.4,0h0c3.83,0,6.42,0,6.43,0,27.12.08,42,19.12,42.65,37.9.3,13-1,26.75-12.71,39.86-10.62,11.35-28.08,14.13-42.12,16.36l-2.11.33C834.62,161.87,819.91,162.11,812.1,162.11Z"/><path class="cls-2" d="M877,15.81l-1.85,37.73s-22.44,1.1-31.83,2c-11.74,1.3-16.07,1.12-16.61,6.63a6.3,6.3,0,0,0,5.14,7s1.23.32,7.35.32c2,0,4.49,0,7.65-.12l6.44,0c3.86,0,6.46,0,6.46,0,24.33.07,38.47,16.87,39.11,34.53.35,14.9-2,26.34-11.82,37.4-10.25,10.95-28,13.29-42.18,15.57-10.5,1.56-25,1.8-32.73,1.8-3.26,0-5.3,0-5.3,0l1.08-38.91s19.75-.44,34.25-2c7.33-.9,16-.72,16.21-7.87.1-2.51-.51-7.11-9.54-7.11-.45,0-.92,0-1.41,0H847c-.88,0-3.55.06-11.66.43-3.85.11-7.06.14-9.61.14-5.08,0-7.59-.14-7.59-.14-19.18-.59-29.85-17.81-30.46-32.11-.57-15,1.56-26.45,11.63-37.37,10-11.1,24.08-14.29,38-16.14C851,15.85,877,15.81,877,15.81m7.35-7H877c-1.08,0-26.56,0-40.55,1.73h-.1c-15.11,2-30.68,5.64-42.2,18.36-12.71,13.79-14,28.51-13.47,42.36a43.4,43.4,0,0,0,9.89,25.41,36.68,36.68,0,0,0,27.27,13.42c.54,0,3.17.15,7.89.15,3,0,6.33,0,9.81-.14h.12c6.66-.31,9.52-.39,10.72-.41l.18,0,1.2-.06,1.08,0,.75,0c-1.63.32-3.75.53-5.24.68-1,.1-2,.21-3,.33-14,1.53-33.4,2-33.59,2l-6.66.15-.18,6.66-1.09,38.9-.19,7,7,.14c.08,0,2.15.05,5.44.05,7.91,0,22.82-.25,33.77-1.88h.08l2.1-.34c14.56-2.31,32.68-5.19,44.07-17.35l.06-.07.06-.06c12.48-14,13.91-28.58,13.59-42.23v-.09A41.73,41.73,0,0,0,893,74.94c-8.54-8.23-20-12.59-33.28-12.63h-.11s-2.61,0-6.37,0l-6.37,0h-.27l-.94,0c9.91-.83,29.57-1.8,29.78-1.81l6.34-.31.31-6.34L884,16.15l.36-7.35Z"/><rect class="cls-1" x="697.04" y="63.28" width="135.49" height="46.99" transform="translate(593.82 837.25) rotate(-83.64)"/><path class="cls-2" d="M752,20.72l39.75,4.43L777.54,152.84l-39.74-4.43L752,20.72M745.85,13l-.77,7-14.24,127.7-.77,7,6.95.77,39.75,4.43,7,.78.77-7,14.24-127.7.77-7-7-.77-39.75-4.43-7-.78Z"/><path class="cls-1" d="M674.23,153.82c-18.14,0-34-6.57-47.14-19.53-13-13.17-19.56-29-19.56-47.17A64.55,64.55,0,0,1,627.08,40C640.16,26.88,656,20.25,674.23,20.25S708.31,26.88,721.39,40A64.09,64.09,0,0,1,741.1,87.12c0,18.21-6.63,34.07-19.71,47.16S692.37,153.82,674.23,153.82ZM657.85,103.5a23.38,23.38,0,0,0,32.64,0,21.72,21.72,0,0,0,6.92-16.34A21,21,0,0,0,690.53,71l-.08-.08a23,23,0,0,0-32.6,0,22.14,22.14,0,0,0-6.62,16.21A22.61,22.61,0,0,0,657.85,103.5Z"/><path class="cls-2" d="M674.23,23.75c17.5,0,32.28,6.29,44.68,18.69A60.52,60.52,0,0,1,737.6,87.12c0,17.33-6.28,32.28-18.69,44.68-12.4,12.23-27.18,18.52-44.68,18.52S642,144,629.55,131.8C617.32,119.4,611,104.45,611,87.12a61.06,61.06,0,0,1,18.52-44.68C642,30,656.73,23.75,674.23,23.75m0,89.87A25.81,25.81,0,0,0,692.92,106a25.19,25.19,0,0,0,8-18.86,24.56,24.56,0,0,0-8-18.69,26.47,26.47,0,0,0-37.55,0,25.54,25.54,0,0,0-7.64,18.69A26.22,26.22,0,0,0,655.37,106a25.94,25.94,0,0,0,18.86,7.64m0-96.87c-19.17,0-35.87,7-49.63,20.74A67.93,67.93,0,0,0,604,87.12c0,19.09,6.91,35.78,20.54,49.6l0,0,0,0c13.81,13.63,30.5,20.54,49.59,20.54s35.78-6.91,49.6-20.54C737.62,123,744.6,106.29,744.6,87.12a67.49,67.49,0,0,0-20.77-49.67c-13.73-13.72-30.43-20.7-49.6-20.7ZM660.33,101a19.23,19.23,0,0,1-5.6-13.91,18.54,18.54,0,0,1,5.59-13.74,19.47,19.47,0,0,1,27.65,0l.08.08.08.08a17.66,17.66,0,0,1,5.78,13.58A18.17,18.17,0,0,1,688.05,101a19.88,19.88,0,0,1-27.72.08Z"/><polygon class="cls-1" points="528.68 145.04 541.51 64.34 511.14 59.51 517.91 16.86 621.64 33.34 614.86 75.99 584.49 71.17 571.67 151.87 528.68 145.04"/><path class="cls-2" d="M520.82,20.87l96.81,15.38L612,72l-30.37-4.83-12.83,80.71-36.07-5.73,12.82-80.71-30.37-4.82,5.68-35.74m-5.81-8-1.1,6.91-5.68,35.74-1.1,6.91,6.91,1.1,23.46,3.73L525.78,141l-1.1,6.91,6.91,1.1,36.08,5.73,6.91,1.1,1.1-6.91,11.72-73.8,23.46,3.73,6.91,1.1,1.1-6.92,5.68-35.73,1.1-6.92-6.92-1.1L521.92,14,515,12.86Z"/><path class="cls-1" d="M452.08,133.68l-.48-.08c-1.89-.3-3.83-.61-5.81-1.11l-19.05-4.85-4.45,17.49-45.12-11.49L410.12,4.26l64.16,16.33c16.06,4.09,28.12,12.77,35.86,25.81a56.33,56.33,0,0,1,6.4,44.06,55.68,55.68,0,0,1-19.42,30.48l18.77,44.94L473,183.76Zm5.2-46.31a11.09,11.09,0,0,0,2.8.36,11.57,11.57,0,0,0,11.16-8.81A11.45,11.45,0,0,0,463,65l-19-4.85-5.7,22.36Z"/><path class="cls-2" d="M412.65,8.51,473.42,24c14.48,3.68,26.08,11.34,33.72,24.2a53.17,53.17,0,0,1,6,41.41,52.19,52.19,0,0,1-20.29,30.19L511.32,164l-36.41,15.18-20.35-48.63c-2.52-.46-5.26-.78-7.91-1.45l-22.43-5.72-4.46,17.49-38.33-9.76L412.65,8.51m47.43,82.71a15.13,15.13,0,0,0,14.55-11.43,14.9,14.9,0,0,0-10.79-18.18L441.4,55.9,434,85.05l22.43,5.71a14.53,14.53,0,0,0,3.67.46M407.59,0l-1.73,6.78-31.22,122.6-1.72,6.79,6.78,1.72L418,147.66l6.79,1.72,1.73-6.78,2.72-10.71,15.65,4c1.6.41,3.19.7,4.68,1l18.85,45,2.7,6.45,6.45-2.69L514,170.46l6.46-2.7-2.7-6.46L501.35,122a59.12,59.12,0,0,0,18.58-30.65,60.48,60.48,0,0,0-6.78-46.71c-8.23-13.86-21-23.08-38-27.41L414.37,1.73,407.59,0Zm34.9,80,4-15.58,15.65,4a7.84,7.84,0,0,1,4.9,3.65,7.93,7.93,0,0,1,.84,6,8.18,8.18,0,0,1-7.77,6.16,8,8,0,0,1-1.94-.24l-15.65-4Z"/><path class="cls-1" d="M324.41,153.82c-18.14,0-34-6.57-47.14-19.53-13-13.17-19.56-29-19.56-47.17A64.55,64.55,0,0,1,277.26,40c13.08-13.08,28.94-19.71,47.15-19.71S358.49,26.88,371.57,40a64.09,64.09,0,0,1,19.71,47.16c0,18.21-6.63,34.07-19.71,47.16S342.56,153.82,324.41,153.82ZM308,103.5a23.38,23.38,0,0,0,32.64,0,21.72,21.72,0,0,0,6.92-16.34A21,21,0,0,0,340.71,71l-.08-.08a23,23,0,0,0-32.6,0,22.14,22.14,0,0,0-6.62,16.21A22.61,22.61,0,0,0,308,103.5Z"/><path class="cls-2" d="M324.41,23.75c17.5,0,32.28,6.29,44.68,18.69a60.52,60.52,0,0,1,18.69,44.68c0,17.33-6.28,32.28-18.69,44.68-12.4,12.23-27.18,18.52-44.68,18.52S292.13,144,279.73,131.8c-12.23-12.4-18.52-27.35-18.52-44.68a61.06,61.06,0,0,1,18.52-44.68c12.4-12.4,27.18-18.69,44.68-18.69m0,89.87A25.81,25.81,0,0,0,343.1,106a25.19,25.19,0,0,0,8-18.86,24.56,24.56,0,0,0-8-18.69,26.42,26.42,0,0,0-45.19,18.69A26.18,26.18,0,0,0,305.56,106a25.9,25.9,0,0,0,18.85,7.64m0-96.87c-19.17,0-35.87,7-49.63,20.74a67.93,67.93,0,0,0-20.57,49.63c0,19.09,6.91,35.78,20.54,49.6l0,0,0,0c13.81,13.63,30.5,20.54,49.59,20.54s35.78-6.91,49.6-20.54c13.8-13.79,20.77-30.49,20.77-49.66A67.49,67.49,0,0,0,374,37.45c-13.73-13.72-30.43-20.7-49.6-20.7ZM310.51,101a19.23,19.23,0,0,1-5.6-13.91,18.54,18.54,0,0,1,5.59-13.74,19.47,19.47,0,0,1,27.65,0l.08.08.08.08a17.66,17.66,0,0,1,5.78,13.58A18.13,18.13,0,0,1,338.23,101a18.81,18.81,0,0,1-13.82,5.67,19,19,0,0,1-13.9-5.59Z"/><polygon class="cls-1" points="190.11 66.66 155 72 147.66 23.76 266.52 5.67 273.86 53.92 238.74 59.26 252.94 152.57 204.31 159.98 190.11 66.66"/><path class="cls-2" d="M263.58,9.66,269.87,51l-35.11,5.35L249,149.64,207.24,156,193,62.67,157.93,68l-6.29-41.33,111.94-17m5.87-8-6.92,1.05-111.94,17-6.92,1.06,1.05,6.92L151,69.07,152.06,76l6.92-1,28.2-4.29L200.32,157l1.06,6.92,6.92-1.05L250,156.56l6.92-1.05-1.06-6.92-13.14-86.4,28.19-4.29,6.92-1-1-6.92L270.5,8.61l-1.05-6.92Z"/><path class="cls-1" d="M13.18,159.89a10,10,0,0,1-4.93-1.16,9,9,0,0,1-4.4-5.95,16.4,16.4,0,0,1,.19-7.5,31.2,31.2,0,0,1,3.13-7.85c.69-1.18,2-3.21,4.06-6.28s4.41-6.44,7.14-10.28,5.65-7.93,8.74-12.3l4.73-6.69c-3.11.14-6,.25-8.56.35-4.4.18-7.39.27-8.88.27h-.51c-5.28,0-6.53-3.14-6.82-4.5A8.62,8.62,0,0,1,8.65,91.3a18.91,18.91,0,0,1,5.25-5.07,13.89,13.89,0,0,1,7.85-2.51q3.16,0,9.9-.07,6-.06,13.48-.17l4.67-6.29a15.82,15.82,0,0,1,4.81-4.08,11.91,11.91,0,0,1,5.81-1.71h3.84c4.22,0,5.33,3,5.57,3.86.51,2-.08,4-1.76,6.17l-.13.17-.09.09c-.08.09-.31.39-.93,1.22a5.79,5.79,0,0,1,3,1.39L80.06,69.85a15,15,0,0,1,4.87-4.29,12,12,0,0,1,5.81-1.71h3.85a5.36,5.36,0,0,1,5.57,4c.49,2-.08,4-1.7,6.12l-24,34.27a26.73,26.73,0,0,1,6.11-1.68,20.78,20.78,0,0,1,3.06-.25,12.89,12.89,0,0,1,4.3.68,6.93,6.93,0,0,1,4.71,6.49c.12,2.42-.74,5.31-2.71,9.09a82.9,82.9,0,0,1-8.78,12.69l-.07.07c-.65.77-1.24,1.49-1.78,2.17.73-.62,1.48-1.28,2.26-2,2.43-2.22,4.94-4.66,7.45-7.26,1.35-1.4,2.65-2.79,3.87-4.14a55.37,55.37,0,0,1,4.23-4.83,49.3,49.3,0,0,1,12.9-9.33,35.29,35.29,0,0,1,16.08-3.82,16.49,16.49,0,0,1,6.71,1.29,11.17,11.17,0,0,1,4.86,3.88,9.24,9.24,0,0,1,1.44,6.39,13.51,13.51,0,0,1-1.92,5.35c.67-.66,1.31-1.33,1.94-2a10.24,10.24,0,0,1,4.75-3.4,7.71,7.71,0,0,1,2.09-.32,5.06,5.06,0,0,1,2.92.88,5,5,0,0,1,1.92,5.14,9.08,9.08,0,0,1-2.14,4.38l-.09.11a141,141,0,0,1-10.46,10.46,138,138,0,0,1-12.63,10.25,95.65,95.65,0,0,1-12.92,7.91,28.37,28.37,0,0,1-12.42,3.41c-5.65,0-9.85-1.57-12.48-4.68a14.31,14.31,0,0,1-3-5.9c-.68.59-1.37,1.16-2.05,1.72a72.61,72.61,0,0,1-7.45,5.35,22.22,22.22,0,0,1-7.49,3.19,16.93,16.93,0,0,1-3.34.35,11.19,11.19,0,0,1-5.29-1.23,9.17,9.17,0,0,1-4.87-6.79c-.47-2.64,0-5.75,1.44-9.48a44.87,44.87,0,0,1,7.09-11.52l.33-.42c-2.2,2-4.49,4.15-6.82,6.52-2.93,3-5.57,5.88-7.85,8.66l-5.81,8.33-.07.09a16.64,16.64,0,0,1-4.87,4.11,12,12,0,0,1-5.81,1.7H28a5.34,5.34,0,0,1-5.06-2.74,24.08,24.08,0,0,1-6.09,2.39A18.94,18.94,0,0,1,13.18,159.89Zm90-18.47a5.83,5.83,0,0,0,.18,1.62c.08.3.13.47.78.64l.16,0a2.73,2.73,0,0,0,.76.09,11.83,11.83,0,0,0,4.22-1.05,59.22,59.22,0,0,0,9.49-5c.75-.48,1.52-1,2.28-1.5a61.84,61.84,0,0,1-9.39,3.45A57.37,57.37,0,0,1,103.21,141.42ZM55,99.37l-7.92,11q-4.7,6.48-8.86,12.3C35.41,126.48,33,130,30.86,133c-1.64,2.4-2.89,4.24-3.72,5.49,1-.76,2-1.61,3-2.54,2.3-2,4.68-4.35,7.07-6.88s4.48-4.83,6.25-6.94L59.86,98.74Zm63.66,20a14.19,14.19,0,0,0-3.55,2,24.12,24.12,0,0,0-3.75,3.47,35,35,0,0,0-2.4,3c.73-.23,1.43-.48,2.09-.75a26.49,26.49,0,0,0,6.32-3.48,11.77,11.77,0,0,0,3.12-3.43,6.58,6.58,0,0,0,.55-1.24h0A8.48,8.48,0,0,0,118.61,119.4Z"/><path class="cls-2" d="M94.59,67.35c1.23,0,2,.45,2.18,1.33s-.16,1.94-1.13,3.18l-34.29,49a74.85,74.85,0,0,1,10.06-7.21A26.63,26.63,0,0,1,81.08,110a17.06,17.06,0,0,1,2.56-.21,9.32,9.32,0,0,1,3.13.48,3.44,3.44,0,0,1,2.39,3.38q.12,2.58-2.32,7.28A80.7,80.7,0,0,1,78.43,133a51.15,51.15,0,0,0-4.5,6A19.63,19.63,0,0,0,72,142.77a2.82,2.82,0,0,0-.2,1.92,1.18,1.18,0,0,0,.79.66,1.73,1.73,0,0,0,.47.06c.9,0,2.22-.59,4-1.78a63.66,63.66,0,0,0,6.88-5.56q3.78-3.45,7.62-7.42,2.19-2.27,4-4.32a51.11,51.11,0,0,1,4.05-4.62,45.67,45.67,0,0,1,12-8.67,31.69,31.69,0,0,1,14.5-3.44,13.09,13.09,0,0,1,5.3,1,7.7,7.7,0,0,1,3.37,2.65,5.8,5.8,0,0,1,.86,4,11.1,11.1,0,0,1-2.25,5.16A25.11,25.11,0,0,1,128,128a42,42,0,0,1-7.75,4.77,57.82,57.82,0,0,1-9.53,3.58,53,53,0,0,1-10.59,1.85A11.69,11.69,0,0,0,100,144a4.21,4.21,0,0,0,3.31,3.11,6.11,6.11,0,0,0,1.77.24,15.31,15.31,0,0,0,5.52-1.3,62.15,62.15,0,0,0,10.06-5.29,111.63,111.63,0,0,0,11-8,108.65,108.65,0,0,0,10.07-9.33,7.16,7.16,0,0,1,3.11-2.39,4.24,4.24,0,0,1,1.13-.18,1.56,1.56,0,0,1,.92.25,1.62,1.62,0,0,1,.46,1.72,5.83,5.83,0,0,1-1.39,2.72,137.51,137.51,0,0,1-10.19,10.19,136.76,136.76,0,0,1-12.32,10A91.55,91.55,0,0,1,111,153.3a24.79,24.79,0,0,1-10.85,3q-6.9,0-9.8-3.44a11.74,11.74,0,0,1-2.59-8.68,21.32,21.32,0,0,1,.4-2.89l-.59.58q-3.58,3.43-7.15,6.35a67.51,67.51,0,0,1-7.09,5.1A18.88,18.88,0,0,1,67,156.08a14,14,0,0,1-2.69.29,7.72,7.72,0,0,1-3.66-.82,5.7,5.7,0,0,1-3-4.31q-.53-3,1.26-7.61A42,42,0,0,1,65.45,133q5.43-7,8.08-10.26c1.77-2.16,2.16-3.46,1.19-3.9a1.36,1.36,0,0,0-.56-.11,9.08,9.08,0,0,0-4,1.69,65.65,65.65,0,0,0-7.61,5.77q-4.24,3.63-8.81,8.27t-8.14,9l-5.83,8.34a12.91,12.91,0,0,1-3.84,3.24,8.55,8.55,0,0,1-4.1,1.26H28c-1.24,0-1.95-.44-2.12-1.32s.22-1.94,1.19-3.18l2.38-3.44a59.48,59.48,0,0,1-7,5,22.36,22.36,0,0,1-6.36,2.72,14.91,14.91,0,0,1-2.88.31,6.41,6.41,0,0,1-3.21-.71A5.5,5.5,0,0,1,7.25,152a13,13,0,0,1,.2-5.89,27.34,27.34,0,0,1,2.78-7q.93-1.59,3.91-6c2-3,4.35-6.35,7.08-10.2S26.87,115,30,110.59s6-8.54,8.88-12.51l-15.7.66c-4.46.18-7.39.26-8.8.26h-.45c-2,0-3.15-.57-3.39-1.73a5.23,5.23,0,0,1,1.06-4,15.45,15.45,0,0,1,4.3-4.1,10.4,10.4,0,0,1,5.89-1.92q3.18,0,9.93-.07T46.91,87l5.7-7.68a12.21,12.21,0,0,1,3.71-3.11,8.52,8.52,0,0,1,4.1-1.26h3.84c1.24,0,2,.42,2.19,1.26s-.16,1.88-1.13,3.11c-.18.18-.77,1-1.79,2.32l-3.77,5.1,5-.4h.5c1.46,0,2.33.35,2.61,1.07a3.18,3.18,0,0,1-.59,2.85,11.72,11.72,0,0,1-3.25,3.17,11.13,11.13,0,0,1-4.83,1.92l-6.23.8q-4.09,5.7-8.8,12.18t-8.87,12.32q-4.17,5.82-7.35,10.46t-4.37,6.49c-1.59,2.65-2.48,4.57-2.65,5.76s0,1.87.66,2a1.87,1.87,0,0,0,.49.07,8,8,0,0,0,3.81-1.66,59.66,59.66,0,0,0,6.56-5.16q3.57-3.18,7.28-7.09t6.49-7.21L82.93,71.86a11.43,11.43,0,0,1,3.71-3.25,8.55,8.55,0,0,1,4.1-1.26h3.85M102,132.77a38.6,38.6,0,0,0,10.33-2.45,30,30,0,0,0,7.15-4,15.21,15.21,0,0,0,4-4.5,6.8,6.8,0,0,0,1.06-3.91,2.73,2.73,0,0,0-2-2.25,4.59,4.59,0,0,0-1.6-.26,11.7,11.7,0,0,0-3.5.66,17.2,17.2,0,0,0-4.5,2.44,27.44,27.44,0,0,0-4.3,4,42.1,42.1,0,0,0-3.78,5,39.25,39.25,0,0,0-2.91,5.3M94.59,60.35H90.74a15.48,15.48,0,0,0-7.51,2.15,18.36,18.36,0,0,0-5.94,5.22l-.05.06,0,.06-4.16,6a8.9,8.9,0,0,0-8.78-5.89H60.42a15.38,15.38,0,0,0-7.52,2.15A19.24,19.24,0,0,0,47.1,75L47,75,47,75.1,43.35,80c-4.2.06-8.13.11-11.73.14-4.25,0-7.66.07-9.87.07A17.39,17.39,0,0,0,12,83.33a22.44,22.44,0,0,0-6.22,6,12,12,0,0,0-2.08,9.39C4.4,102.26,7.49,106,13.89,106h.57c1.57,0,4.51-.09,9-.27l1.44-.06-.61.88q-4.63,6.54-8.73,12.29c-2.75,3.87-5.17,7.35-7.19,10.36-2.13,3.17-3.45,5.21-4.15,6.4l0,.06,0,.07a34.21,34.21,0,0,0-3.47,8.75,19.75,19.75,0,0,0-.2,9.11,12.41,12.41,0,0,0,6.1,8.19,13.35,13.35,0,0,0,6.64,1.61,21.89,21.89,0,0,0,4.25-.45l.09,0,.09,0A24.77,24.77,0,0,0,22,161.42,9.48,9.48,0,0,0,28,163.34h3.84a15.38,15.38,0,0,0,7.52-2.15,19.89,19.89,0,0,0,5.89-5l.14-.18.13-.18,5.06-7.24a15.83,15.83,0,0,0,.19,3.86,12.71,12.71,0,0,0,6.68,9.27,14.69,14.69,0,0,0,6.92,1.63,20,20,0,0,0,4.05-.43A25.56,25.56,0,0,0,77,159.31,75.06,75.06,0,0,0,83.25,155,18.4,18.4,0,0,0,85,157.42c3.32,3.93,8.42,5.92,15.15,5.92,4.32,0,8.9-1.24,14-3.78a100.59,100.59,0,0,0,13.4-8.19,146.45,146.45,0,0,0,12.94-10.51,145.81,145.81,0,0,0,10.71-10.72l.1-.11.09-.11a12.74,12.74,0,0,0,2.89-6.06A8.35,8.35,0,0,0,146,113.8a11.1,11.1,0,0,0-3.05.45l-.39.12a12.28,12.28,0,0,0-2-5.06,14.61,14.61,0,0,0-6.35-5.12,19.91,19.91,0,0,0-8.12-1.59,38.83,38.83,0,0,0-17.65,4.19,52.7,52.7,0,0,0-12.37,8.6,13.74,13.74,0,0,0,.07-2.11,10.42,10.42,0,0,0-7.05-9.62,16.37,16.37,0,0,0-5.46-.88l-1.12,0L101.28,76c2.82-3.69,2.8-6.93,2.28-9a8.84,8.84,0,0,0-9-6.64Z"/></g></g></svg>